<?xml version="1.0" encoding="iso-8859-1"?>
<!-- Generator: Adobe Illustrator 18.0.0, SVG Export Plug-In . SVG Version: 6.00 Build 0)  -->
<!DOCTYPE svg PUBLIC "-//W3C//DTD SVG 1.1//EN" "http://www.w3.org/Graphics/SVG/1.1/DTD/svg11.dtd">
<svg version="1.1" id="Capa_1" xmlns="http://www.w3.org/2000/svg" xmlns:xlink="http://www.w3.org/1999/xlink" x="0px" y="0px"
	 viewBox="0 0 466.022 466.022" style="enable-background:new 0 0 466.022 466.022;" xml:space="preserve">
<path d="M387.561,453.294c-10.496-18.314-30.112-29.69-51.192-29.69c-12.582,0-24.521,3.9-34.497,11.14
	c-14.391-19.323-36.38-31.803-60.366-34.209V299.406l33.906-33.906h30.365c4.694,0,8.5-3.806,8.5-8.5s-3.806-8.5-8.5-8.5h-13.365
	l35.99-35.99c3.32-3.319,3.32-8.701,0-12.021c-3.319-3.319-8.701-3.319-12.021,0l-5.49,5.49v-13.094c0-4.694-3.806-8.5-8.5-8.5
	s-8.5,3.806-8.5,8.5v30.094l-52.385,52.385v-98.958l50.896-50.896c3.32-3.319,3.32-8.701,0-12.021
	c-3.319-3.319-8.701-3.319-12.021,0l-8.49,8.49v-9.094c0-4.694-3.806-8.5-8.5-8.5s-8.5,3.806-8.5,8.5v26.094l-13.385,13.385V50.406
	l12.885-12.886l9.875,9.875c1.66,1.66,3.835,2.49,6.01,2.49s4.351-0.83,6.01-2.49c3.32-3.319,3.319-8.701,0-12.021l-9.875-9.875
	l10.989-10.99c3.32-3.319,3.32-8.701,0-12.021c-3.319-3.319-8.701-3.319-12.021,0l-23.875,23.875V10.885c0-4.694-3.806-8.5-8.5-8.5
	s-8.5,3.806-8.5,8.5v85.479L187.891,59.75V31.885c0-4.694-3.806-8.5-8.5-8.5s-8.5,3.806-8.5,8.5V42.75l-4.99-4.99
	c-3.319-3.319-8.701-3.319-12.021,0c-3.32,3.319-3.32,8.701,0,12.021l34.99,34.99h-13.094c-4.694,0-8.5,3.806-8.5,8.5
	s3.806,8.5,8.5,8.5h30.094l18.635,18.635v111.759l-18.229-18.229v-29.051c0-4.694-3.806-8.5-8.5-8.5s-8.5,3.806-8.5,8.5v12.051
	l-5.875-5.875c-3.319-3.32-8.701-3.319-12.021,0c-3.32,3.319-3.319,8.701,0,12.021l53.125,53.125v144.328
	c-23.977,2.407-45.965,14.886-60.362,34.207c-9.969-7.238-21.907-11.138-34.491-11.138c-21.081,0-40.696,11.376-51.192,29.69
	c-2.334,4.073-0.925,9.267,3.148,11.601s9.266,0.925,11.601-3.148c7.475-13.042,21.439-21.144,36.443-21.144
	c11.459,0,22.167,4.549,30.153,12.81c1.856,1.92,4.507,2.856,7.16,2.527c2.651-0.33,4.993-1.887,6.323-4.204
	c12.263-21.364,35.146-34.636,59.717-34.636c24.581,0,47.462,13.271,59.716,34.634c1.329,2.317,3.67,3.875,6.321,4.206
	c2.651,0.329,5.302-0.604,7.16-2.523c7.997-8.263,18.71-12.813,30.167-12.813c15.004,0,28.968,8.102,36.443,21.144
	c1.57,2.74,4.436,4.275,7.382,4.275c1.434,0,2.886-0.363,4.219-1.127C388.487,462.56,389.896,457.366,387.561,453.294z"/>
<g>
</g>
<g>
</g>
<g>
</g>
<g>
</g>
<g>
</g>
<g>
</g>
<g>
</g>
<g>
</g>
<g>
</g>
<g>
</g>
<g>
</g>
<g>
</g>
<g>
</g>
<g>
</g>
<g>
</g>
</svg>
